<svg width="156" height="286" viewBox="0 0 156 286" fill="none" xmlns="http://www.w3.org/2000/svg">
<g clip-path="url(#clip0)">
<path d="M0.384766 246.381H155.615V247.616H0.384766V246.381Z" fill="white"/>
<path d="M5.10254 264.467H13.7514V266.825H8.13526V271.206H13.4144V273.565H8.13526V278.395H13.976V280.753H5.10254V264.467Z" fill="white"/>
<path d="M16.11 270.868C16.11 270.419 16.11 270.082 16.11 269.745C16.11 269.408 16.11 269.183 15.9977 268.958H18.9181C18.9181 269.295 18.9181 269.632 19.0304 269.969C19.0304 270.306 19.0304 270.643 19.0304 270.98C19.1427 270.756 19.255 270.531 19.4797 270.194C19.7043 269.969 19.8167 269.745 20.1536 269.52C20.3783 269.295 20.7152 269.183 21.0522 269.071C21.3892 268.958 21.7261 268.846 22.1754 268.846C22.7371 268.846 23.074 268.958 23.5233 269.071C23.8603 269.183 24.1973 269.408 24.4219 269.632C24.6465 269.857 24.8712 270.082 24.9835 270.306C25.0958 270.531 25.2082 270.756 25.3205 270.868C25.4328 270.643 25.6574 270.419 25.7698 270.194C25.9944 269.969 26.2191 269.745 26.4437 269.52C26.6684 269.295 27.0053 269.183 27.3423 269.071C27.6793 268.958 28.1286 268.846 28.5778 268.846C29.2518 268.846 29.8134 268.958 30.2627 269.183C30.712 269.408 31.0489 269.745 31.3859 270.194C31.7229 270.643 31.8352 271.093 31.9475 271.766C32.0599 272.328 32.1722 273.002 32.1722 273.788V281.314H29.2518V273.676C29.2518 272.89 29.1395 272.328 28.9148 271.991C28.6902 271.654 28.2409 271.429 27.6793 271.429C27.3423 271.429 27.1176 271.542 26.7807 271.654C26.556 271.766 26.3314 271.991 26.2191 272.216C26.1067 272.44 25.8821 272.777 25.8821 273.002C25.7698 273.339 25.7698 273.676 25.7698 274.013V281.426H22.8494V273.788C22.8494 273.002 22.7371 272.44 22.5124 272.103C22.2878 271.766 21.8385 271.542 21.2769 271.542C20.9399 271.542 20.7152 271.654 20.3783 271.766C20.1536 271.879 19.929 272.103 19.8167 272.328C19.7043 272.553 19.4797 272.89 19.4797 273.114C19.3674 273.451 19.3674 273.788 19.3674 274.125V281.539H16.11V270.868Z" fill="white"/>
<path d="M33.9694 274.913C33.9694 273.677 34.0817 272.666 34.4187 271.88C34.7557 271.094 35.205 270.42 35.6543 269.97C36.2159 269.521 36.7775 269.184 37.3391 268.959C37.9007 268.735 38.5747 268.622 39.2486 268.622C39.8102 268.622 40.4841 268.735 41.1581 268.959C41.832 269.184 42.3936 269.521 42.8429 269.97C43.2922 270.42 43.7415 271.094 44.0785 271.88C44.4155 272.666 44.5278 273.677 44.5278 274.913C44.5278 276.148 44.4155 277.271 44.0785 278.058C43.7415 278.844 43.2922 279.518 42.8429 279.967C42.3936 280.416 41.7197 280.753 41.1581 280.978C40.4841 281.203 39.9225 281.203 39.2486 281.203C38.687 281.203 38.013 281.09 37.3391 280.978C36.6652 280.753 36.1036 280.529 35.6543 279.967C35.0927 279.518 34.7557 278.844 34.4187 278.058C34.0817 277.159 33.9694 276.148 33.9694 274.913ZM37.0021 274.913C37.0021 275.362 37.0021 275.923 37.1145 276.373C37.2268 276.822 37.3391 277.384 37.4514 277.721C37.6761 278.17 37.9007 278.395 38.1254 278.731C38.4623 278.956 38.7993 279.068 39.2486 279.068C39.6979 279.068 40.1472 278.956 40.3718 278.731C40.7088 278.507 40.9334 278.17 41.0458 277.721C41.2704 277.271 41.3827 276.822 41.3827 276.373C41.4951 275.923 41.4951 275.362 41.4951 274.913C41.4951 274.463 41.4951 273.902 41.3827 273.452C41.2704 273.003 41.1581 272.554 41.0458 272.104C40.9334 271.655 40.5965 271.431 40.3718 271.094C40.0349 270.869 39.6979 270.757 39.2486 270.757C38.7993 270.757 38.35 270.869 38.1254 271.094C37.7884 271.318 37.5638 271.655 37.4514 272.104C37.3391 272.554 37.1145 272.891 37.1145 273.452C37.0021 273.902 37.0021 274.351 37.0021 274.913Z" fill="white"/>
<path d="M46.7742 270.868C46.7742 270.531 46.7742 270.082 46.7742 269.745C46.7742 269.408 46.7742 269.071 46.6619 268.846H49.3577C49.3577 269.183 49.3577 269.632 49.47 269.969C49.47 270.306 49.47 270.756 49.47 271.093C49.5823 270.868 49.6946 270.643 49.807 270.306C49.9193 269.969 50.1439 269.745 50.3686 269.52C50.5932 269.295 50.9302 269.071 51.2672 268.959C51.6041 268.846 52.0534 268.734 52.5027 268.734C52.615 268.734 52.7274 268.734 52.7274 268.734C52.7274 268.734 52.8397 268.734 52.952 268.734V271.43C52.615 271.317 52.3904 271.317 52.1657 271.317C51.8288 271.317 51.6041 271.317 51.2672 271.43C50.9302 271.542 50.7055 271.654 50.4809 271.879C50.2563 272.104 50.0316 272.441 49.9193 272.778C49.807 273.114 49.6946 273.676 49.6946 274.238V280.865H46.7742V270.868Z" fill="white"/>
<path d="M59.3546 278.057L61.7133 268.846H64.5214L60.8148 281.089L60.1408 283.336C60.0285 283.785 59.8039 284.122 59.6915 284.459C59.4669 284.796 59.2422 285.133 59.0176 285.358C58.793 285.582 58.456 285.807 58.0067 285.919C57.6697 286.032 57.2204 286.144 56.6588 286.144C56.2095 286.144 55.8726 286.144 55.6479 286.032C55.3109 285.919 55.0863 285.919 54.8617 285.807L54.974 283.561C55.1986 283.673 55.3109 283.673 55.5356 283.673C55.7602 283.673 55.8726 283.785 56.0972 283.785C56.5465 283.785 56.8835 283.673 57.1081 283.336C57.3328 282.999 57.5574 282.55 57.782 281.988L58.0067 280.977L53.9631 268.734H56.9958L59.3546 278.057Z" fill="white"/>
<path d="M71.9345 264.467H74.9672V278.507H80.3587V280.866H71.9345V264.467Z" fill="white"/>
<path d="M82.0435 263.679H85.0762V266.599H82.0435V263.679ZM82.0435 268.846H84.9639V280.977H82.0435V268.846Z" fill="white"/>
<path d="M90.5804 263.343V270.644C90.6927 270.419 90.805 270.194 91.0297 269.97C91.2543 269.745 91.3667 269.52 91.7036 269.296C91.9283 269.071 92.2652 268.959 92.6022 268.846C92.9392 268.734 93.2761 268.734 93.7254 268.734C95.0733 268.734 96.0842 269.296 96.8705 270.419C97.6567 271.542 97.9937 273.002 97.9937 275.024C97.9937 275.923 97.8814 276.709 97.769 277.383C97.6567 278.169 97.3198 278.843 96.9828 279.405C96.6458 279.966 96.1965 280.416 95.6349 280.753C95.0733 281.09 94.3994 281.314 93.7254 281.314C93.2761 281.314 92.8268 281.202 92.4899 281.09C92.1529 280.977 91.8159 280.865 91.5913 280.64C91.3666 280.416 91.142 280.191 90.9174 279.966C90.6927 279.742 90.5804 279.517 90.4681 279.18H90.3557C90.3557 279.629 90.3557 279.966 90.3557 280.303C90.3557 280.64 90.3557 280.865 90.2434 281.09H87.5477C87.5477 280.865 87.5477 280.528 87.66 280.191C87.66 279.854 87.66 279.405 87.66 278.955V263.343H90.5804ZM90.5804 274.912C90.5804 275.473 90.5804 276.035 90.6927 276.484C90.805 276.934 90.9174 277.383 91.0297 277.832C91.142 278.281 91.479 278.506 91.7036 278.731C92.0406 278.955 92.3776 279.068 92.8268 279.068C93.7254 279.068 94.287 278.731 94.5117 278.057C94.8487 277.383 94.961 276.26 94.961 274.912C94.961 273.676 94.8487 272.778 94.5117 271.991C94.1747 271.205 93.6131 270.868 92.8268 270.868C92.3776 270.868 92.0406 270.98 91.8159 271.205C91.5913 271.43 91.2543 271.654 91.142 272.104C90.9174 272.441 90.805 272.89 90.6927 273.452C90.5804 274.013 90.5804 274.238 90.5804 274.912Z" fill="white"/>
<path d="M100.128 270.868C100.128 270.531 100.128 270.082 100.128 269.745C100.128 269.408 100.128 269.071 100.016 268.846H102.711C102.711 269.183 102.711 269.632 102.824 269.969C102.824 270.306 102.824 270.756 102.824 271.093C102.936 270.868 103.048 270.643 103.161 270.306C103.273 269.969 103.498 269.745 103.722 269.52C103.947 269.295 104.284 269.071 104.621 268.959C104.958 268.846 105.407 268.734 105.856 268.734C105.969 268.734 106.081 268.734 106.081 268.734C106.081 268.734 106.193 268.734 106.306 268.734V271.43C105.969 271.317 105.744 271.317 105.519 271.317C105.182 271.317 104.958 271.317 104.621 271.43C104.284 271.542 104.059 271.654 103.835 271.879C103.61 272.104 103.385 272.441 103.273 272.778C103.161 273.114 103.048 273.676 103.048 274.238V280.865H100.128V270.868Z" fill="white"/>
<path d="M108.44 269.521C108.889 269.296 109.338 269.184 110.012 268.959C110.574 268.735 111.36 268.622 112.371 268.622C113.269 268.622 114.056 268.735 114.73 268.959C115.291 269.184 115.853 269.521 116.19 269.97C116.527 270.42 116.751 270.869 116.864 271.543C116.976 272.104 117.088 272.778 117.088 273.565V278.844C117.088 279.293 117.088 279.742 117.201 280.079C117.313 280.416 117.313 280.753 117.313 280.978H114.617C114.505 280.753 114.505 280.529 114.505 280.192C114.505 279.855 114.505 279.63 114.505 279.293C114.168 279.742 113.719 280.192 113.157 280.641C112.595 280.978 111.922 281.203 111.135 281.203C110.686 281.203 110.237 281.09 109.787 280.978C109.338 280.866 109.001 280.641 108.664 280.304C108.327 279.967 108.103 279.63 107.878 279.181C107.653 278.731 107.541 278.282 107.541 277.721C107.541 276.934 107.653 276.26 107.99 275.699C108.327 275.137 108.777 274.688 109.338 274.463C109.9 274.126 110.574 273.902 111.36 273.789C112.146 273.677 113.045 273.565 113.943 273.565H114.505V273.115C114.505 272.778 114.505 272.554 114.393 272.217C114.28 271.88 114.168 271.655 114.056 271.431C113.831 271.206 113.606 271.094 113.382 270.869C113.157 270.644 112.708 270.644 112.371 270.644C112.034 270.644 111.697 270.644 111.36 270.757C111.023 270.869 110.686 270.981 110.461 271.094C110.124 271.206 109.9 271.318 109.675 271.431C109.45 271.543 109.226 271.655 109.113 271.767L108.44 269.521ZM114.168 275.025H113.943C112.708 275.025 111.697 275.137 111.023 275.474C110.349 275.811 110.012 276.373 110.012 277.271C110.012 277.833 110.237 278.282 110.574 278.619C110.911 278.956 111.36 279.181 111.922 279.181C112.82 279.181 113.382 278.844 113.719 278.282C114.056 277.721 114.28 276.822 114.28 275.699V275.025H114.168Z" fill="white"/>
<path d="M119.447 270.868C119.447 270.531 119.447 270.082 119.447 269.745C119.447 269.408 119.447 269.071 119.335 268.846H122.031C122.031 269.183 122.031 269.632 122.143 269.969C122.143 270.306 122.143 270.756 122.143 271.093C122.255 270.868 122.368 270.643 122.48 270.306C122.592 269.969 122.817 269.745 123.042 269.52C123.266 269.295 123.603 269.071 123.94 268.959C124.277 268.846 124.727 268.734 125.176 268.734C125.288 268.734 125.4 268.734 125.4 268.734C125.4 268.734 125.513 268.734 125.625 268.734V271.43C125.288 271.317 125.063 271.317 124.839 271.317C124.502 271.317 124.277 271.317 123.94 271.43C123.603 271.542 123.379 271.654 123.154 271.879C122.929 272.104 122.705 272.441 122.592 272.778C122.48 273.114 122.368 273.676 122.368 274.238V280.865H119.447V270.868Z" fill="white"/>
<path d="M127.647 263.679H130.68V266.599H127.647V263.679ZM127.647 268.846H130.567V280.977H127.647V268.846Z" fill="white"/>
<path d="M142.136 280.415C141.8 280.528 141.35 280.752 140.789 280.865C140.227 280.977 139.441 281.202 138.542 281.202C137.531 281.202 136.745 281.089 136.071 280.752C135.397 280.415 134.836 279.966 134.274 279.405C133.825 278.843 133.488 278.169 133.263 277.495C133.038 276.821 132.926 275.923 132.926 275.136C132.926 274.238 133.038 273.339 133.263 272.553C133.488 271.767 133.825 271.093 134.274 270.531C134.723 269.969 135.285 269.52 135.846 269.183C136.52 268.846 137.194 268.734 137.981 268.734C138.654 268.734 139.216 268.846 139.89 269.071C140.452 269.295 141.013 269.632 141.463 270.194C141.912 270.643 142.249 271.317 142.473 272.216C142.698 273.002 142.81 274.125 142.81 275.361V275.923H135.734C135.734 276.933 135.959 277.72 136.408 278.394C136.857 278.955 137.644 279.292 138.767 279.292C139.665 279.292 140.339 279.18 140.789 278.955C141.238 278.731 141.687 278.506 141.912 278.281L142.136 280.415ZM139.89 273.901C139.89 271.767 139.216 270.643 137.868 270.643C137.531 270.643 137.194 270.756 136.857 270.98C136.633 271.205 136.408 271.43 136.183 271.767C135.959 272.104 135.846 272.441 135.846 272.778C135.734 273.114 135.734 273.564 135.734 273.901H139.89Z" fill="white"/>
<path d="M144.383 278.169C144.495 278.169 144.608 278.281 144.832 278.394C145.057 278.506 145.282 278.618 145.506 278.618C145.731 278.618 146.068 278.843 146.405 278.843C146.742 278.843 147.079 278.955 147.416 278.955C147.977 278.955 148.427 278.843 148.764 278.731C149.101 278.618 149.325 278.281 149.325 277.72C149.325 277.495 149.213 277.27 149.1 277.046C148.988 276.821 148.539 276.484 148.09 276.26L146.854 275.586C146.517 275.361 146.18 275.249 145.955 275.024C145.618 274.799 145.394 274.575 145.169 274.35C144.945 274.125 144.72 273.788 144.608 273.451C144.495 273.114 144.383 272.665 144.383 272.216C144.383 271.767 144.495 271.43 144.72 270.98C144.945 270.531 145.169 270.194 145.506 269.857C145.843 269.52 146.292 269.295 146.854 269.071C147.416 268.846 147.977 268.734 148.651 268.734C149.437 268.734 150.111 268.846 150.673 268.959C151.235 269.071 151.572 269.183 151.684 269.296L151.572 271.542C151.235 271.43 150.785 271.317 150.448 271.205C149.999 271.093 149.55 271.093 148.988 271.093C148.427 271.093 147.977 271.205 147.753 271.43C147.528 271.654 147.416 271.879 147.416 272.328C147.416 272.665 147.528 272.89 147.753 273.114C147.977 273.339 148.314 273.564 148.764 273.901L150.224 274.799C150.561 275.024 150.898 275.249 151.235 275.473C151.572 275.698 151.796 275.923 151.909 276.147C152.021 276.372 152.246 276.596 152.358 276.933C152.47 277.27 152.47 277.495 152.47 277.832C152.47 278.394 152.358 278.955 152.133 279.292C151.909 279.742 151.572 280.078 151.235 280.415C150.785 280.752 150.336 280.977 149.774 281.089C149.213 281.202 148.651 281.314 147.977 281.314C147.191 281.314 146.517 281.202 145.955 281.089C145.394 280.977 144.945 280.865 144.608 280.752L144.383 278.169Z" fill="white"/>
<path d="M78.8985 96.2051C33.2954 75.2008 38.6869 28.0251 38.7992 6.00986L119.447 6.12218C119.447 28.1375 124.502 75.2008 78.8985 96.2051ZM38.7992 2.41553L35.3172 6.12218C35.2049 8.70561 35.2049 11.963 35.2049 13.6478C34.8679 39.4821 36.665 79.6937 78.6738 99.2379C100.914 88.9042 117.762 71.1571 122.255 43.638C124.839 27.6882 123.266 12.6369 123.266 2.41553H38.7992Z" fill="white"/>
<path d="M61.6005 60.2618C58.3431 63.7438 55.1981 67.1135 54.0748 68.2368C53.8502 68.4614 53.8502 68.7984 53.9625 68.9107C54.1872 69.1353 54.5241 69.4723 54.6364 69.4723C54.8611 69.4723 54.9734 69.5846 55.3104 69.2477C55.4227 69.1353 59.017 65.6533 63.173 61.6097C63.173 61.6097 62.7237 61.3851 62.3867 61.0481C62.0498 60.8235 61.6005 60.2618 61.6005 60.2618Z" fill="white"/>
<path d="M63.8473 59.3624C64.6335 60.1486 65.9814 60.9349 65.9814 60.9349L65.1952 61.6088C64.8582 61.9458 63.8473 61.3842 62.8364 60.4856C61.8255 59.587 61.2639 58.5761 61.4885 58.3514L62.2748 57.5652C62.3871 57.5652 62.9487 58.4638 63.8473 59.3624Z" fill="white"/>
<path d="M100.689 68.2365C101.363 67.5626 101.363 67.001 101.363 67.001L102.149 67.3379C102.374 67.5626 102.149 68.4612 101.475 69.1351C100.802 69.8091 99.9029 70.0337 99.6783 69.809L99.229 68.9105C99.229 68.9105 100.015 68.9105 100.689 68.2365Z" fill="white"/>
<path d="M99.5657 67.0016C100.015 66.6646 100.127 66.103 100.127 66.103L100.577 66.44C100.689 66.5523 100.577 67.1139 100.127 67.6755C99.678 68.1248 99.0041 68.3495 98.7795 68.1248L98.5548 67.5632C98.5548 67.5632 99.1164 67.4509 99.5657 67.0016Z" fill="white"/>
<path d="M96.6452 25.7788C98.1054 27.1267 99.5656 28.2499 100.801 28.8115C100.801 28.6992 100.689 28.6992 100.689 28.5869C99.5656 26.902 96.4205 24.5432 94.0618 22.8584C94.5111 23.757 95.2973 24.6556 96.6452 25.7788Z" fill="white"/>
<path d="M101.812 30.1593L101.026 30.9456C99.9028 31.3949 97.2071 29.3731 95.0729 27.4636C93.725 26.228 90.8047 23.083 91.7032 21.8474L92.0402 21.5105C91.8156 21.3981 91.5909 21.1735 91.3663 21.1735C91.1416 21.0612 90.8046 20.9489 90.4677 21.0612C90.1307 21.0612 89.9061 21.2858 89.7937 21.5105C89.6814 22.0721 90.0184 22.8583 90.4677 23.6446C90.917 24.5432 92.7141 27.0143 96.1962 29.8224C97.7687 31.0579 99.6782 31.8442 101.026 32.4058C101.251 32.5181 102.149 32.6304 102.486 32.2935C102.823 31.9565 102.486 31.2826 102.149 30.6086C102.037 30.6086 101.925 30.384 101.812 30.1593Z" fill="white"/>
<path d="M99.3414 65.765C97.9935 64.1925 87.5475 51.9493 85.9749 50.0398C84.2901 48.018 73.6194 35.3255 70.1374 30.9449C66.0938 25.8904 65.3075 18.7017 65.3075 17.9154C65.3075 17.5785 65.3075 17.3538 65.3075 17.0169C65.3075 16.9045 65.0829 16.9045 65.0829 17.0169C64.8582 17.4662 63.6227 19.9373 59.8037 23.6439C56.9957 26.2273 53.5136 28.3615 51.9411 28.9231C51.8288 28.9231 51.8288 29.0354 51.8288 29.0354C52.0534 29.1477 54.6369 29.2601 54.6369 29.2601C58.3435 29.597 59.8037 30.7203 63.1734 32.8544C66.9924 35.3255 76.3152 44.3113 78 45.9962C79.7972 47.681 97.7688 65.765 98.2181 66.2143C98.2181 66.2143 98.4428 66.5512 98.5551 66.5512C98.5551 66.5512 98.8921 66.5513 99.229 66.2143C99.566 65.9896 99.6783 65.6527 99.6783 65.6527C99.4537 65.8773 99.3414 65.765 99.3414 65.765ZM97.5442 65.2034C97.5442 65.2034 87.5475 55.0943 81.2574 48.5796C68.7895 35.6625 63.0611 31.7312 60.0284 30.1586C58.3435 29.2601 56.434 28.8108 56.0971 28.6984C55.8724 28.5861 55.7601 28.3615 56.3217 27.9122C56.9956 27.3506 58.1189 26.7889 58.7928 26.5643C59.0175 26.452 59.916 26.7889 60.8146 27.1259C62.4995 27.7999 63.9597 28.6984 67.6663 32.4051C68.9019 33.6406 70.3621 35.1008 71.9346 36.7857C83.2792 48.8042 97.7688 65.0911 97.7688 65.0911L97.5442 65.2034Z" fill="white"/>
<path d="M106.53 21.2849C106.193 21.7342 105.519 22.7451 105.182 23.0821C105.631 22.7451 105.856 21.8465 105.407 19.4878C105.07 17.8029 104.845 17.3536 104.62 16.792C104.508 16.455 104.283 16.5674 104.059 16.792C103.834 17.0166 103.385 17.9152 103.385 17.9152C103.385 18.1399 103.385 17.9152 102.599 15.5564C102.149 14.0963 101.925 12.973 101.925 12.4114C101.925 12.0744 101.925 11.8498 101.925 11.6251C101.925 11.4005 101.812 11.4005 101.363 11.6251C101.138 11.7375 99.1165 13.1977 98.2179 15.3318C97.7686 16.5674 97.6563 17.5783 97.6563 17.0166C97.544 15.7811 97.544 15.7811 97.4317 15.8934C96.7577 16.1181 94.5113 17.129 94.3989 20.1617C93.8373 20.0494 93.388 20.0494 93.1634 20.274C92.3771 21.0603 94.062 23.756 96.7577 26.3394C99.4535 28.9229 102.374 30.2707 103.048 29.4845C103.385 29.1475 103.272 28.5859 102.823 27.6873C103.048 27.6873 103.385 27.575 103.609 27.575C103.609 27.575 106.754 27.0134 106.867 24.093C106.867 21.0603 106.53 21.2849 106.53 21.2849ZM105.631 24.8792C105.407 25.2162 104.845 25.8902 103.946 26.3394C102.935 26.7887 101.588 26.9011 100.914 26.6764C97.7686 25.6655 95.8591 22.5205 95.8591 22.5205C93.388 18.4768 96.7577 16.792 96.9824 16.6797C96.9824 16.6797 96.6454 18.0276 96.87 18.9261C97.0947 19.7124 97.544 20.3863 97.6563 20.8356C97.9933 21.7342 97.544 22.2958 97.3193 22.6328C97.207 22.7451 97.544 22.7451 97.544 22.6328C97.544 22.6328 97.6563 22.5205 97.7686 22.5205C98.2179 22.1835 98.6672 21.6219 98.5549 21.0603C98.2179 19.8247 97.3193 19.0385 98.4426 16.455C99.1165 14.8825 100.577 13.31 100.689 13.31C100.914 13.1977 101.026 12.973 101.026 13.0853C101.026 13.31 101.251 14.4332 101.475 15.1072C101.588 15.8934 102.486 17.3536 102.262 19.4878C102.037 21.6219 98.6672 23.8683 98.1056 24.093C97.9933 24.093 97.6563 24.3176 97.6563 24.3176C97.544 24.43 97.6563 24.43 97.7686 24.43C97.8809 24.43 99.4535 24.093 100.577 23.3067C101.588 22.6328 102.486 21.6219 102.823 20.9479C103.385 19.8247 103.722 18.2522 103.722 18.1399C103.834 17.9152 103.946 17.9152 103.946 18.0276C103.946 18.1399 104.171 19.0385 104.283 19.4878C104.283 19.7124 104.508 20.4987 104.508 21.2849C104.508 22.8574 104.059 23.6437 103.16 24.3176C102.599 24.7669 102.037 24.8792 101.363 24.8792H101.138C101.026 24.8792 100.914 24.8792 101.138 24.9916C101.251 24.9916 101.251 24.9916 101.363 25.1039C101.925 25.3285 102.935 25.3285 103.722 24.8792C104.059 24.6546 104.508 24.3176 105.07 23.756C105.294 23.5314 105.631 23.1944 105.631 23.3067C105.856 23.5314 105.968 24.3176 105.631 24.8792Z" fill="white"/>
<path d="M63.5102 13.8732C63.0609 13.8732 61.9377 14.2101 60.8145 14.8841C56.9955 16.9059 53.1765 20.5002 50.9301 23.3083C50.2561 24.2069 49.6945 25.1055 49.3575 25.7794C48.2343 28.0259 49.8068 28.4751 50.9301 28.0259C52.7272 27.2396 54.8614 26.004 56.4339 24.6562C61.0391 20.7249 63.7349 17.1305 64.1842 15.4457C64.5211 14.6594 64.4088 13.8732 63.5102 13.8732ZM62.9486 16.1196C62.9486 16.1196 62.2747 17.4675 60.9268 19.04C59.6913 20.5002 58.1187 22.0727 57.7818 22.4097C57.6694 22.4097 57.4448 22.4097 57.5571 22.1851C58.2311 20.3879 57.2202 19.2647 57.3325 18.9277C57.4448 18.4784 57.7818 17.8045 58.0064 17.5798C59.4666 16.2319 62.724 14.7718 62.8363 14.8841C62.9486 14.9964 63.1733 15.1087 63.1733 15.3334C63.1733 15.6703 62.9486 16.1196 62.9486 16.1196Z" fill="white"/>
<path d="M77.5507 47.2322C76.7644 48.0184 64.9705 59.2507 64.9705 59.2507C65.1952 59.363 65.6445 59.8123 65.6445 59.8123C65.6445 59.8123 76.4275 49.4786 77.2137 48.6924C77.4384 48.4677 77.8876 48.0184 78.1123 47.9061L77.5507 47.2322Z" fill="white"/>
<path d="M99.6784 33.4162C99.7907 33.4162 100.015 33.4162 100.128 33.4162C100.24 33.4162 100.577 33.3039 100.577 33.3039C100.689 33.1916 100.689 33.0792 100.577 33.0792C100.015 33.0792 99.0045 32.7423 97.8812 32.293C97.2073 32.5176 96.0841 32.7423 94.7362 33.4162C93.0513 34.2025 89.3447 36.3366 81.7067 43.3006L82.2683 43.9745C84.8518 41.6158 88.4461 38.4707 90.3556 37.2352C93.7253 34.9887 96.1964 33.9778 97.8812 33.6408C98.3305 33.5285 99.1168 33.4162 99.6784 33.4162Z" fill="white"/>
<path d="M92.2651 27.9122C90.1309 25.778 89.5693 24.2055 89.2324 23.0823V22.97H89.12V23.0823C88.8954 25.3288 89.12 26.2273 88.2214 28.5861C87.4352 30.4956 86.0873 32.9667 84.1778 35.1008C83.0546 36.4487 81.1451 38.4705 79.4603 40.4923L80.6958 41.9525C80.8081 41.8402 81.1451 41.3909 81.5944 40.9416C87.4352 34.7639 92.3774 30.9449 94.1746 29.597C93.3883 29.0354 92.8267 28.4738 92.2651 27.9122Z" fill="white"/>
<path d="M75.0796 45.097C72.6085 47.9051 70.1374 50.6009 69.4635 51.3871C68.9019 52.0611 63.5104 57.7895 63.5104 57.7895C63.5104 57.7895 63.6227 58.0142 63.8473 58.2388C64.072 58.4635 64.2966 58.6881 64.2966 58.6881C64.2966 58.6881 75.5289 47.2312 76.3152 46.3326L75.0796 45.097Z" fill="white"/>
<path d="M84.1779 129.34C93.1637 129.34 98.8922 137.539 98.8922 145.851C98.8922 154.388 93.5007 159.779 86.7613 159.779C77.6631 159.779 72.047 151.467 72.047 142.931C72.047 135.742 76.4276 129.34 84.1779 129.34ZM84.8518 161.239C95.1855 161.239 102.262 154.5 102.262 144.166C102.262 134.619 95.0732 127.879 85.6381 127.879C76.2029 127.879 68.6773 134.843 68.6773 144.503C68.6773 154.051 74.8551 161.239 84.8518 161.239Z" fill="white"/>
<path d="M111.585 131.362C111.585 129.565 112.483 129.677 114.168 129.677C118.549 129.677 122.705 131.474 122.705 136.978C122.705 142.482 118.436 143.38 116.415 143.38C114.28 143.38 111.585 143.605 111.585 142.706V131.362ZM120.458 143.717C123.603 142.482 126.074 139.449 126.074 135.967C126.074 127.318 116.19 128.217 115.404 128.217C113.045 128.217 110.574 128.441 107.99 128.441C105.744 128.441 105.968 128.217 105.07 128.217C104.508 128.217 104.171 128.441 104.171 128.778C104.171 130.351 107.99 128.441 107.99 132.822V155.623C107.99 158.993 104.733 158.432 104.733 159.555C104.733 159.779 104.958 160.004 105.182 160.004C106.867 160.004 108.552 159.779 110.237 159.779C113.943 159.779 114.954 160.004 115.404 160.004C115.741 160.004 116.19 160.116 116.19 159.667C116.19 158.095 111.585 159.555 111.585 155.623V146.188C111.585 145.739 111.36 144.953 112.708 144.953C117.762 144.953 117.088 144.84 118.661 147.312L123.603 155.174C125.288 157.758 127.085 160.004 130.343 160.004C130.792 160.004 134.274 160.004 134.274 159.442C134.274 158.319 131.016 160.004 127.759 155.062L120.458 143.717Z" fill="white"/>
<path d="M133.487 131.025C132.364 129.115 130.118 129.677 130.118 128.891C130.118 128.554 130.342 128.217 130.679 128.217C131.915 128.217 132.701 128.441 135.734 128.441C137.194 128.441 138.43 128.217 138.879 128.217C139.216 128.217 139.778 128.217 139.778 128.666C139.778 129.452 137.643 129.452 137.643 130.8C137.643 131.474 138.205 132.26 138.43 132.597L143.821 141.246C144.158 141.808 144.495 142.032 144.72 142.032C144.944 142.032 145.169 141.695 145.506 141.134L150.111 133.608C150.448 133.159 151.01 132.373 151.01 131.137C151.01 128.891 147.64 129.902 147.64 128.778C147.64 128.217 148.089 128.104 148.539 128.104C149.662 128.104 150.785 128.329 151.796 128.329C153.144 128.329 154.379 128.104 155.727 128.104C155.952 128.104 156.177 128.441 156.177 128.666C156.177 129.115 155.39 129.34 155.053 129.565C153.818 130.238 153.256 131.586 152.582 132.71L146.292 142.482C145.618 143.605 145.169 143.83 145.169 144.504V155.511C145.169 159.442 148.876 158.207 148.876 159.555C148.876 160.004 148.426 160.004 147.865 160.004C147.191 160.004 144.607 159.779 142.923 159.779C140.901 159.779 139.328 160.004 138.879 160.004C138.43 160.004 138.205 160.004 138.205 159.442C138.205 158.207 141.687 159.33 141.687 156.185V145.29C141.687 144.391 141.013 143.493 140.676 143.043L133.487 131.025Z" fill="white"/>
<path d="M63.6228 155.848C63.8474 159.667 67.1048 157.982 67.1048 159.555C67.1048 160.004 66.5432 160.004 65.9816 160.004C65.083 160.004 63.5105 159.779 61.8256 159.779C60.4777 159.779 59.0175 160.004 57.8943 160.004C57.445 160.004 57.445 159.779 57.445 159.555C57.445 158.207 60.2531 159.218 60.2531 155.848L59.0175 138.438C59.0175 137.315 58.7929 136.641 58.5682 136.641C58.2313 136.641 57.8943 137.09 57.445 137.989L48.2345 156.859C48.0099 157.308 47.336 159.105 46.8867 159.105C46.4374 159.105 46.1004 158.095 45.9881 157.758L36.3283 137.989C36.216 137.652 35.9914 137.539 35.7667 137.539C35.6544 137.539 35.5421 137.764 35.4297 138.213L34.0819 153.939C33.8572 159.892 38.1255 157.982 38.1255 159.555C38.1255 160.004 37.6762 160.004 37.0023 160.004C36.4406 160.004 34.4188 159.779 33.071 159.779C30.7122 159.779 30.0382 160.004 29.1397 160.004C28.8027 160.004 28.6904 159.779 28.6904 159.442C28.6904 157.87 31.4984 159.779 31.8354 155.062C32.397 147.761 32.9586 143.043 32.9586 138.213C32.9586 127.655 29.4766 130.239 29.4766 128.666C29.4766 128.217 29.8136 128.217 30.2629 128.217C31.0491 128.217 31.8354 128.441 32.734 128.441C33.5203 128.441 34.3065 128.217 35.0928 128.217C35.7667 128.217 35.7667 129.003 35.9914 129.452L46.662 152.254C47.1113 153.152 47.336 153.602 47.6729 153.602C47.8976 153.602 48.3469 152.703 49.0208 151.131L59.6915 129.677C59.9161 129.228 60.3654 128.104 60.8147 128.104C61.264 128.104 62.7242 128.329 62.9488 128.329C63.9597 128.329 64.409 128.104 65.083 128.104C65.3076 128.104 65.5323 128.329 65.5323 128.666C65.5323 130.126 61.9379 128.217 62.1626 133.496L63.6228 155.848Z" fill="white"/>
<path d="M9.14604 141.358C9.14604 142.93 9.03372 142.93 10.8309 142.93H15.6608C20.266 142.93 19.1428 139.336 20.1537 139.336C20.4907 139.336 20.603 139.785 20.603 140.235C20.603 141.807 20.4906 143.38 20.4906 144.727C20.4906 145.851 20.603 147.086 20.603 148.322C20.603 148.771 20.3783 148.883 20.1537 148.883C18.8058 148.883 20.266 144.952 16.5593 144.952H9.9323C9.03372 144.952 9.14604 145.738 9.14604 146.412V154.612C9.14604 157.308 8.80907 158.319 12.5157 158.319C22.8494 158.319 24.3096 153.713 24.8712 153.713C25.2082 153.713 25.2082 154.163 25.2082 154.275C25.2082 155.847 24.085 157.42 22.9618 158.656C21.5016 160.228 20.4907 160.228 18.5812 160.228C15.2115 160.228 11.8418 160.003 8.35978 160.003C6.56261 160.003 4.65312 160.228 2.96828 160.228C2.51899 160.228 2.29434 160.116 2.29434 159.779C2.40666 159.217 2.85596 159.329 4.31615 158.656C5.43938 158.094 5.55171 156.858 5.55171 154.724V134.281C5.55171 132.26 5.55171 130.125 3.0806 129.789C2.74363 129.676 1.73273 129.564 1.73273 129.115C1.73273 128.778 1.95737 128.553 3.30525 128.553C11.7295 128.553 14.0882 128.778 15.8854 128.778C16.784 128.778 20.8276 128.553 22.2878 128.553C22.6248 128.553 22.7371 129.002 22.7371 129.564C22.7371 134.506 22.0632 134.955 21.8385 134.955C20.7153 134.955 21.5016 132.821 20.7153 131.81C19.5921 130.238 14.8745 130.575 13.1897 130.575C8.92139 130.575 9.03371 130.35 9.03371 133.383V141.358H9.14604Z" fill="white"/>
<path d="M8.35981 182.358C8.35981 183.706 8.13516 184.38 9.70768 184.38C14.8745 184.38 14.6499 181.684 15.4361 181.684C15.5485 181.684 15.6608 181.796 15.6608 182.133C15.6608 183.706 14.4252 185.503 12.7404 185.503C9.59536 185.503 8.47213 185.391 7.3489 185.391C6.67497 185.391 5.77638 185.503 4.65315 185.503C4.42851 185.503 4.20386 185.391 4.20386 185.278C4.20386 184.267 5.77638 185.391 5.77638 182.919V173.035C5.77638 171.238 3.4176 171.799 3.4176 171.126C3.4176 170.901 3.64225 170.789 4.09154 170.789C4.8778 170.789 6.11335 170.901 6.89961 170.901C8.69678 170.901 8.92142 170.789 9.25839 170.789C9.70768 170.789 9.82001 170.789 9.82001 171.013C9.82001 171.799 8.35981 171.013 8.35981 172.586V182.358Z" fill="white"/>
<path d="M22.2878 182.919C22.2878 185.503 24.6466 184.492 24.6466 185.166C24.6466 185.391 24.422 185.503 23.9727 185.503C23.1864 185.503 22.4002 185.391 20.8277 185.391C19.9291 185.391 19.0305 185.503 18.4689 185.503C18.2442 185.503 18.2442 185.391 18.2442 185.278C18.2442 184.492 19.7044 185.054 19.7044 183.144V173.147C19.7044 171.238 17.3456 171.799 17.3456 171.126C17.3456 170.789 17.9073 170.789 18.0196 170.789C18.8058 170.789 19.7044 170.901 20.3784 170.901C21.1646 170.901 21.8386 170.789 23.0741 170.789C23.748 170.789 23.8604 170.789 23.8604 171.126C23.8604 171.799 22.2878 171.126 22.2878 173.035V182.919Z" fill="white"/>
<path d="M29.8135 173.708C29.8135 170.788 27.5671 172.023 27.5671 170.9C27.5671 170.563 27.7917 170.563 27.904 170.563C28.0164 170.563 28.241 170.675 29.1396 170.675C30.9368 170.675 32.7339 170.563 34.4188 170.563C39.5856 170.563 39.5856 173.708 39.5856 174.157C39.5856 175.505 38.7994 176.629 37.3392 177.078C39.9226 177.752 40.7089 178.875 40.7089 180.784C40.7089 183.593 38.7994 185.39 35.4297 185.39C32.2846 185.39 31.2737 185.277 30.2628 185.277C29.8135 185.277 29.2519 185.39 28.8026 185.39C28.3533 185.39 28.1287 185.39 28.1287 185.053C28.1287 184.379 29.9259 184.94 29.9259 182.919V173.708H29.8135ZM32.397 175.955C32.397 176.966 32.6216 177.078 33.8572 177.19H35.0927C36.6652 177.19 37.3392 176.404 37.3392 174.831C37.3392 172.922 35.7666 171.574 33.9695 171.574C32.5093 171.574 32.5093 172.36 32.5093 173.596V175.955H32.397ZM32.397 182.02C32.397 184.042 32.9586 184.603 34.9804 184.603C37.0022 184.603 38.1254 183.256 38.1254 181.234C38.1254 179.998 37.5638 178.089 33.7448 178.089C32.5093 178.089 32.5093 178.65 32.5093 179.661V182.02H32.397Z" fill="white"/>
<path d="M45.4264 173.259C45.4264 170.9 43.1799 171.686 43.1799 170.9C43.1799 170.675 43.4046 170.563 43.6292 170.563C44.6401 170.563 44.7525 170.675 46.1003 170.675C47.4482 170.675 48.9084 170.563 50.3686 170.563C54.9738 170.563 55.4231 173.484 55.4231 174.494C55.4231 175.842 54.8615 176.629 54.1876 177.078C53.626 177.527 52.952 177.752 52.952 177.976C52.952 178.089 54.6369 181.121 56.0971 183.817C56.3217 184.154 56.6587 184.154 56.8833 184.154C57.108 184.154 57.3326 184.042 57.5573 184.042C57.7819 184.042 57.8942 184.154 57.8942 184.379C57.8942 185.053 56.5464 185.502 55.6478 185.502C53.9629 185.502 53.289 184.154 52.7274 182.919L50.9302 179.661C50.4809 178.763 50.2563 178.538 49.133 178.538C48.0098 178.538 48.1221 178.65 48.1221 179.437V183.031C48.1221 185.277 50.144 184.379 50.144 185.165C50.144 185.39 50.0316 185.502 49.47 185.502C49.133 185.502 48.5714 185.39 47.6728 185.39C46.5496 185.39 45.5387 185.502 44.4155 185.502C44.1908 185.502 43.7415 185.614 43.7415 185.165C43.7415 184.491 45.4264 185.165 45.4264 182.582V173.259ZM48.0098 177.078C48.0098 177.639 48.7961 177.639 49.3577 177.639C52.5027 177.639 52.6151 176.516 52.6151 175.281C52.6151 173.259 51.4918 171.686 49.3577 171.686C48.5714 171.686 47.8975 171.686 47.8975 172.922V177.078H48.0098Z" fill="white"/>
<path d="M63.8474 180.335C63.5105 180.335 63.0612 180.448 62.6119 181.796C62.4995 182.245 62.1626 182.919 62.1626 183.481C62.1626 184.941 64.409 184.604 64.409 185.165C64.409 185.615 63.7351 185.502 63.2858 185.502C62.6119 185.502 61.9379 185.39 61.3763 185.39C60.7024 185.39 60.1408 185.502 59.5792 185.502C59.2422 185.502 58.9052 185.502 58.9052 185.278C58.9052 184.828 59.9161 184.941 60.4777 183.705L66.0939 171.013C66.2062 170.676 66.3185 170.339 66.6555 170.339C66.8801 170.339 66.8801 170.339 67.1048 171.013L72.7209 183.817C73.3949 185.278 74.5181 184.491 74.5181 185.165C74.5181 185.502 74.2935 185.502 73.7318 185.502C72.9456 185.502 72.384 185.39 71.0361 185.39C70.1375 185.39 69.3512 185.502 68.7896 185.502C68.4527 185.502 68.1157 185.502 68.1157 185.278C68.1157 184.716 69.5759 184.941 69.5759 183.593C69.5759 183.144 69.4636 182.807 69.2389 182.245C68.565 180.56 68.4527 180.448 67.891 180.448H63.8474V180.335ZM67.3294 179.212C67.6664 179.212 68.0034 179.212 68.0034 178.988C68.0034 178.651 67.891 178.426 67.7787 178.201L66.0939 174.382C65.9816 174.27 65.9816 174.27 65.8692 174.27C65.8692 174.27 65.7569 174.27 65.6446 174.495L64.0721 178.201C63.9597 178.426 63.8474 178.651 63.8474 178.988C63.8474 179.212 64.1844 179.212 64.5214 179.212H67.3294Z" fill="white"/>
<path d="M78.2244 173.259C78.2244 170.9 75.9779 171.686 75.9779 170.9C75.9779 170.675 76.2025 170.563 76.4272 170.563C77.4381 170.563 77.5504 170.675 78.8983 170.675C80.2462 170.675 81.7064 170.563 83.1666 170.563C87.7718 170.563 88.1088 173.484 88.1088 174.494C88.1088 175.842 87.5472 176.629 86.8732 177.078C86.3116 177.527 85.6377 177.752 85.6377 177.976C85.6377 178.089 87.4348 181.121 88.895 183.817C89.1197 184.154 89.4566 184.154 89.6813 184.154C89.9059 184.154 90.1306 184.042 90.3552 184.042C90.5799 184.042 90.6922 184.154 90.6922 184.379C90.6922 185.053 89.3443 185.502 88.4457 185.502C86.7609 185.502 86.087 184.154 85.5253 182.919L83.7282 179.661C83.2789 178.763 82.8296 178.538 81.8187 178.538C80.6955 178.538 80.8078 178.65 80.8078 179.437V183.031C80.8078 185.277 82.8296 184.379 82.8296 185.165C82.8296 185.39 82.7173 185.502 82.1557 185.502C81.8187 185.502 81.2571 185.39 80.3585 185.39C79.2353 185.39 78.2244 185.502 77.1011 185.502C76.8765 185.502 76.4272 185.614 76.4272 185.165C76.4272 184.491 78.112 185.165 78.112 182.582V173.259H78.2244ZM80.8078 177.078C80.8078 177.639 81.594 177.639 82.1557 177.639C85.3007 177.639 85.413 176.516 85.413 175.281C85.413 173.259 84.2898 171.686 82.1557 171.686C81.3694 171.686 80.6955 171.686 80.6955 172.922V177.078H80.8078Z" fill="white"/>
<path d="M97.432 182.919C97.432 185.503 99.7908 184.492 99.7908 185.166C99.7908 185.391 99.5662 185.503 99.1169 185.503C98.3306 185.503 97.5443 185.391 95.9718 185.391C95.0732 185.391 94.1747 185.503 93.613 185.503C93.3884 185.503 93.3884 185.391 93.3884 185.278C93.3884 184.492 94.8486 185.054 94.8486 183.144V173.147C94.8486 171.238 92.4898 171.799 92.4898 171.126C92.4898 170.789 93.0514 170.789 93.1637 170.789C93.95 170.789 94.8486 170.901 95.5225 170.901C96.3088 170.901 96.9827 170.789 98.2183 170.789C98.8922 170.789 99.0045 170.789 99.0045 171.126C99.0045 171.799 97.432 171.126 97.432 173.035V182.919Z" fill="white"/>
<path d="M107.429 176.068C107.429 176.966 107.429 177.079 108.327 177.079H109.675C111.472 177.079 111.584 175.169 111.921 175.169C112.034 175.169 112.258 175.169 112.371 175.731L112.483 179.437C112.483 179.662 112.595 180.448 112.146 180.448C111.472 180.448 112.034 178.202 109.9 178.202H108.327C107.316 178.202 107.429 178.427 107.429 179.662V182.358C107.429 183.706 107.316 184.38 108.889 184.38C114.056 184.38 113.831 181.684 114.617 181.684C114.73 181.684 114.842 181.796 114.842 182.133C114.842 183.706 113.606 185.503 111.921 185.503C108.776 185.503 107.541 185.391 106.418 185.391C105.744 185.391 104.845 185.503 103.722 185.503C103.497 185.503 103.273 185.391 103.273 185.278C103.273 184.267 104.845 185.391 104.845 182.919V173.147C104.845 171.238 102.486 171.912 102.486 171.126C102.486 170.901 102.599 170.789 102.936 170.789C103.834 170.789 105.294 170.901 108.552 170.901C110.012 170.901 111.472 170.789 113.269 170.789C113.494 170.789 113.719 171.013 113.719 171.238L113.831 173.26C113.831 173.484 113.943 174.271 113.494 174.271C112.483 174.271 114.168 171.799 110.124 171.799C107.541 171.799 107.541 171.799 107.541 173.26V176.068H107.429Z" fill="white"/>
<path d="M118.324 181.122C118.211 180.785 118.099 180.223 118.548 180.223C118.885 180.223 118.885 180.448 118.998 180.672C119.672 182.694 121.02 184.604 123.266 184.604C124.951 184.604 126.186 183.593 126.186 181.908C126.186 180.111 124.839 179.886 121.469 178.426C119.672 177.64 118.436 176.853 118.436 174.607C118.436 172.248 120.121 170.451 122.592 170.451C124.277 170.451 125.175 171.237 125.849 171.237C126.074 171.237 126.636 170.9 126.86 170.9C127.197 170.9 127.085 171.237 127.197 171.686L127.422 174.495C127.422 174.944 127.422 175.168 126.973 175.168C126.523 175.168 126.186 171.237 122.592 171.237C121.244 171.237 120.233 172.023 120.233 173.484C120.233 174.832 121.357 175.168 124.165 176.404C126.411 177.415 127.759 178.314 127.759 180.897C127.759 183.593 125.849 185.502 123.041 185.502C121.806 185.502 120.683 185.053 119.447 184.716C118.885 184.604 118.998 184.379 118.885 183.93L118.324 181.122Z" fill="white"/>
<path d="M140.115 175.73C140.115 175.281 139.665 174.944 139.665 173.708C139.665 171.686 141.238 170.451 143.147 170.451C144.495 170.451 145.843 171.237 146.18 171.237C146.517 171.237 146.517 170.9 146.854 170.9C147.079 170.9 147.079 171.013 147.079 171.349C147.079 172.36 147.303 173.484 147.416 174.607C147.416 174.832 147.303 174.944 147.079 174.944C146.854 174.944 146.742 174.832 146.629 174.495C146.18 172.81 144.945 171.349 143.147 171.349C142.137 171.349 141.687 171.911 141.687 172.922C141.687 175.955 148.651 181.796 149.101 181.796C149.213 181.796 149.887 180.897 149.887 179.661C149.887 177.078 147.528 178.089 147.528 177.303C147.528 177.19 147.64 176.966 147.977 176.966C148.314 176.966 148.764 177.078 150.111 177.078C151.122 177.078 151.459 176.966 151.796 176.966C152.021 176.966 152.133 177.078 152.133 177.19C152.133 177.64 151.459 177.303 151.347 178.089C150.898 181.122 149.999 182.02 149.999 182.132C149.999 182.919 152.246 184.042 152.807 184.042C153.593 184.042 153.593 183.93 153.818 183.93C153.93 183.93 154.155 183.93 154.155 184.154C154.155 184.491 153.032 185.502 151.572 185.502C150.336 185.502 148.876 184.491 148.202 183.93C146.966 185.053 144.72 185.502 143.035 185.502C138.318 185.502 136.745 182.245 136.745 180.448C136.97 176.853 140.115 175.955 140.115 175.73ZM147.528 183.593C147.528 183.143 142.698 180.223 141.013 177.078C140.789 176.741 140.564 176.404 140.452 176.404C140.002 176.404 138.879 177.078 138.879 178.538C138.879 180.785 141.8 184.267 145.057 184.267C145.843 184.379 147.528 183.93 147.528 183.593Z" fill="white"/>
<path d="M8.02268 206.505C8.02268 208.864 10.1568 207.965 10.1568 208.527C10.1568 208.752 9.93217 208.864 9.5952 208.864C8.92126 208.864 8.24733 208.752 6.78713 208.752C6.00087 208.752 5.21461 208.864 4.653 208.864C4.54067 208.864 4.42835 208.752 4.42835 208.639C4.42835 207.965 5.77622 208.415 5.77622 206.73V197.744C5.77622 196.059 3.64209 196.508 3.64209 195.947C3.64209 195.61 4.09138 195.722 4.31603 195.722C5.10229 195.722 5.77622 195.835 6.45016 195.835C7.1241 195.835 7.79804 195.722 8.92126 195.722C9.48288 195.722 9.5952 195.722 9.5952 195.947C9.5952 196.621 8.135 195.947 8.135 197.744V206.505H8.02268Z" fill="white"/>
<path d="M14.2005 199.205C14.2005 195.611 12.0664 196.846 12.0664 195.948C12.0664 195.836 12.1787 195.611 12.4034 195.611C12.7403 195.611 13.0773 195.723 13.4143 195.723C13.8636 195.723 14.4252 195.611 15.4361 195.611C15.9977 195.611 15.7731 195.723 16.11 196.06L23.6357 204.372C23.8603 204.597 24.085 204.821 24.1973 204.821C24.3096 204.821 24.3096 204.597 24.3096 204.147V197.857C24.3096 196.172 22.0631 196.509 22.0631 195.836C22.0631 195.723 22.0631 195.499 22.4001 195.499C22.7371 195.499 23.2987 195.611 24.5342 195.611C25.7698 195.611 26.3314 195.499 26.5561 195.499C26.893 195.499 26.893 195.723 26.893 195.723C26.893 196.285 25.3205 195.836 25.3205 197.857V208.416C25.3205 208.865 25.3205 208.977 25.0959 208.977C24.8712 208.977 24.7589 208.865 24.6466 208.753L15.6607 198.981C15.5484 198.868 15.4361 198.756 15.3238 198.756C15.2114 198.756 15.2114 198.868 15.2114 199.093V205.495C15.2114 209.09 17.5702 207.854 17.5702 208.753C17.5702 208.977 17.1209 208.977 16.8963 208.977C15.9977 208.977 15.3238 208.865 14.6498 208.865C14.0882 208.865 13.5266 208.977 13.0773 208.977C12.8527 208.977 12.5157 209.09 12.5157 208.753C12.5157 207.966 14.3129 208.303 14.3129 206.394V199.205H14.2005Z" fill="white"/>
<path d="M33.2953 200.441C33.2953 201.227 33.2953 201.34 34.0815 201.34H35.2048C36.7773 201.34 36.8896 199.655 37.2266 199.655C37.3389 199.655 37.5635 199.655 37.5635 200.104L37.6759 203.474C37.6759 203.698 37.7882 204.372 37.3389 204.372C36.7773 204.372 37.2266 202.35 35.3171 202.35H34.0815C33.1829 202.35 33.2953 202.575 33.2953 203.698V206.506C33.2953 208.641 35.4294 208.079 35.4294 208.641C35.4294 208.977 34.9801 208.977 34.5308 208.977C33.8569 208.977 33.0706 208.865 32.2844 208.865C31.7227 208.865 30.9365 208.977 29.9256 208.977C29.7009 208.977 29.5886 208.865 29.5886 208.753C29.5886 207.854 31.0488 208.865 31.0488 206.619V197.858C31.0488 196.173 28.9147 196.734 28.9147 196.06C28.9147 195.948 29.027 195.723 29.364 195.723C30.1502 195.723 31.4981 195.836 34.3062 195.836C35.654 195.836 36.8896 195.723 38.5744 195.723C38.7991 195.723 38.9114 195.948 38.9114 196.06L39.0237 197.97C39.0237 198.194 39.1361 198.868 38.6868 198.868C37.7882 198.868 39.2484 196.622 35.654 196.622C33.4076 196.622 33.2953 196.622 33.2953 197.97V200.441Z" fill="white"/>
<path d="M47.8972 195.386C51.6039 195.386 54.2996 197.745 54.2996 201.788C54.2996 204.372 53.1764 208.977 47.1109 208.977C43.292 208.977 40.8209 206.393 40.8209 202.574C40.9332 198.531 43.4043 195.498 47.8972 195.386ZM47.7849 208.191C51.0422 208.078 52.0532 205.607 52.0532 202.462C52.0532 198.306 49.8067 196.172 47.3356 196.172C44.1905 196.172 43.1796 198.868 43.1796 201.564C43.292 204.372 44.4152 208.303 47.7849 208.191Z" fill="white"/>
<path d="M58.2309 197.969C58.2309 195.835 56.2091 196.509 56.2091 195.835C56.2091 195.61 56.4337 195.61 56.6584 195.61C57.557 195.61 57.6693 195.722 58.9049 195.722C60.1404 195.722 61.4883 195.61 62.7238 195.61C66.8798 195.61 67.2167 198.306 67.2167 199.092C67.2167 200.328 66.6551 201.001 66.0935 201.451C65.5319 201.9 64.9703 202.012 64.9703 202.237C64.9703 202.349 66.5428 205.045 67.8907 207.404C68.003 207.741 68.4523 207.741 68.5646 207.741C68.7893 207.741 68.9016 207.629 69.1262 207.629C69.3509 207.629 69.4632 207.741 69.4632 207.853C69.4632 208.415 68.2277 208.864 67.4414 208.864C65.9812 208.864 65.3073 207.629 64.7456 206.618L63.1731 203.697C62.7238 202.911 62.3869 202.686 61.4883 202.686C60.4774 202.686 60.5897 202.799 60.5897 203.473V206.73C60.5897 208.752 62.4992 207.966 62.4992 208.639C62.4992 208.864 62.3869 208.976 61.9376 208.976C61.6006 208.976 61.1513 208.864 60.3651 208.864C59.3541 208.864 58.4556 208.976 57.4447 208.976C57.22 208.976 56.883 209.089 56.883 208.639C56.883 208.078 58.4556 208.639 58.4556 206.281V197.969H58.2309ZM60.4774 201.338C60.4774 201.788 61.1513 201.788 61.7129 201.788C64.521 201.788 64.6333 200.777 64.6333 199.654C64.6333 197.856 63.6224 196.396 61.7129 196.396C61.039 196.396 60.4774 196.396 60.4774 197.519V201.338Z" fill="white"/>
<path d="M73.6193 205.719C73.507 208.977 75.5288 207.854 75.5288 208.64C75.5288 208.752 75.6412 208.977 75.0795 208.977C74.4056 208.977 73.9563 208.864 73.1701 208.864C72.2715 208.864 71.5975 208.977 71.2606 208.977C70.9236 208.977 70.9236 208.864 70.9236 208.752C70.9236 208.078 72.4961 208.527 72.4961 206.618L72.7208 199.092C72.8331 195.947 70.8113 196.846 70.8113 196.06C70.8113 195.947 70.9236 195.835 71.0359 195.835C71.2606 195.835 71.5975 195.947 72.1592 195.947C72.6084 195.947 73.2824 195.835 73.9563 195.835C74.181 195.835 74.4056 195.835 74.6303 196.397L78.7862 205.382C78.8985 205.607 78.8985 205.719 79.0108 205.719C79.1232 205.719 79.3478 205.382 79.3478 205.27L83.7284 196.172C83.7284 196.06 83.8407 195.835 84.1777 195.835C84.627 195.835 84.964 195.947 85.3009 195.947C85.6379 195.947 85.9749 195.835 86.5365 195.835C87.0981 195.835 87.0981 195.947 87.0981 196.06C87.0981 196.734 85.3009 196.06 85.3009 198.194L85.6379 206.506C85.7502 208.977 87.4351 208.19 87.4351 208.864C87.4351 209.201 87.2104 209.201 86.5365 209.201C85.9749 209.201 85.4133 209.089 84.964 209.089C83.7284 209.089 83.2791 209.201 82.8298 209.201C82.3805 209.201 81.9312 209.314 81.9312 208.864C81.9312 208.19 83.3914 208.864 83.2791 206.73L83.0545 201.002C83.0545 200.44 83.0545 200.103 82.9421 200.103C82.8298 200.103 82.6052 200.44 82.3805 201.114L78.7862 208.527C78.6739 208.752 78.5616 209.089 78.3369 209.089C77.9999 209.089 77.9999 208.752 77.8876 208.527L74.2933 200.44C74.2933 200.328 74.181 200.103 74.0686 200.103C73.9563 200.103 73.9563 200.44 73.9563 200.553L73.6193 205.719Z" fill="white"/>
<path d="M93.3881 204.259C93.0511 204.259 92.7142 204.372 92.2649 205.607C92.1526 205.944 91.9279 206.618 91.9279 207.067C91.9279 208.415 93.9497 208.078 93.9497 208.64C93.9497 209.089 93.3881 208.865 92.9388 208.865C92.3772 208.865 91.8156 208.752 91.1417 208.752C90.58 208.752 90.0184 208.865 89.4568 208.865C89.2322 208.865 88.8952 208.865 88.8952 208.64C88.8952 208.191 89.9061 208.303 90.3554 207.292L95.4099 195.948C95.5222 195.611 95.6346 195.274 95.8592 195.274C95.9715 195.274 96.0839 195.274 96.3085 195.835L101.363 207.292C101.925 208.64 102.936 207.854 102.936 208.528C102.936 208.865 102.711 208.865 102.262 208.865C101.588 208.865 101.026 208.752 99.7905 208.752C99.0043 208.752 98.218 208.865 97.7687 208.865C97.4317 208.865 97.2071 208.865 97.2071 208.64C97.2071 208.078 98.555 208.303 98.555 207.18C98.555 206.73 98.4426 206.394 98.218 205.944C97.5441 204.484 97.5441 204.259 96.9824 204.259H93.3881ZM96.5332 203.248C96.8701 203.248 97.0948 203.248 97.0948 203.024C97.0948 202.799 96.9824 202.575 96.8701 202.35L95.2976 198.98C95.1853 198.868 95.2976 198.868 95.1853 198.868C95.1853 198.868 95.073 198.868 94.9606 199.093L93.5004 202.462C93.3881 202.687 93.2758 202.912 93.2758 203.136C93.2758 203.361 93.5004 203.361 93.8374 203.361H96.5332V203.248Z" fill="white"/>
<path d="M107.99 197.744C107.99 196.846 107.766 196.733 106.979 196.733H105.519C103.385 196.733 103.947 199.204 103.16 199.204C102.711 199.204 102.823 198.755 102.936 198.53L103.273 196.059C103.273 195.835 103.273 195.61 103.61 195.61C105.407 195.61 106.53 195.722 109.226 195.722C111.922 195.722 112.708 195.61 114.505 195.61C114.73 195.61 114.73 195.835 114.842 196.059L115.067 197.744C115.067 197.969 115.291 198.755 114.842 198.755C114.056 198.755 114.73 196.621 112.483 196.733H111.135C110.349 196.733 110.461 196.846 110.461 197.744V206.281C110.461 208.639 112.82 208.078 112.82 208.527C112.82 208.976 112.483 208.976 111.922 208.976C111.135 208.976 110.574 208.864 109.338 208.864C108.103 208.864 107.429 208.976 106.755 208.976C106.418 208.976 106.081 208.976 106.081 208.527C106.081 207.741 108.215 208.752 108.215 206.505V197.744H107.99Z" fill="white"/>
<path d="M121.132 206.505C121.132 208.864 123.266 207.965 123.266 208.527C123.266 208.752 123.041 208.864 122.704 208.864C122.03 208.864 121.356 208.752 119.896 208.752C119.11 208.752 118.324 208.864 117.762 208.864C117.65 208.864 117.537 208.752 117.537 208.639C117.537 207.965 118.885 208.415 118.885 206.73V197.744C118.885 196.059 116.751 196.508 116.751 195.947C116.751 195.61 117.2 195.722 117.425 195.722C118.211 195.722 118.885 195.835 119.559 195.835C120.233 195.835 120.907 195.722 122.03 195.722C122.592 195.722 122.704 195.722 122.704 195.947C122.704 196.621 121.244 195.947 121.244 197.744V206.505H121.132Z" fill="white"/>
<path d="M131.802 195.386C135.509 195.386 138.317 197.745 138.317 201.788C138.317 204.372 137.194 208.977 131.128 208.977C127.309 208.977 124.838 206.393 124.838 202.574C124.726 198.531 127.309 195.498 131.802 195.386ZM131.578 208.191C134.835 208.078 135.846 205.607 135.846 202.462C135.846 198.306 133.6 196.172 131.128 196.172C127.983 196.172 126.972 198.868 126.972 201.564C127.085 204.372 128.208 208.303 131.578 208.191Z" fill="white"/>
<path d="M141.687 199.205C141.687 195.611 139.553 196.846 139.553 195.948C139.553 195.836 139.665 195.611 139.89 195.611C140.227 195.611 140.564 195.723 140.901 195.723C141.35 195.723 141.912 195.611 142.922 195.611C143.484 195.611 143.259 195.723 143.596 196.06L151.122 204.372C151.347 204.597 151.571 204.821 151.684 204.821C151.796 204.821 151.796 204.597 151.796 204.147V197.857C151.796 196.172 149.55 196.509 149.55 195.836C149.55 195.723 149.662 195.499 149.887 195.499C150.223 195.499 150.785 195.611 152.021 195.611C153.256 195.611 153.818 195.499 154.042 195.499C154.379 195.499 154.379 195.723 154.379 195.723C154.379 196.285 152.807 195.836 152.807 197.857V208.416C152.807 208.865 152.807 208.977 152.582 208.977C152.358 208.977 152.245 208.865 152.133 208.753L143.147 198.981C143.035 198.868 142.922 198.756 142.81 198.756C142.698 198.756 142.698 198.868 142.698 199.093V205.495C142.698 209.09 145.057 207.854 145.057 208.753C145.057 208.977 144.607 208.977 144.383 208.977C143.484 208.977 142.81 208.865 142.136 208.865C141.575 208.865 141.013 208.977 140.564 208.977C140.339 208.977 140.002 209.09 140.002 208.753C140.002 207.966 141.799 208.303 141.799 206.394V199.205H141.687Z" fill="white"/>
<path d="M6.22548 220.66C6.22548 219.986 6.11316 219.874 5.43922 219.874H4.65296C2.96812 219.874 3.41741 221.784 2.74347 221.784C2.4065 221.784 2.51883 221.447 2.51883 221.222L2.74347 219.313C2.74347 219.2 2.74347 218.976 2.96812 218.976C4.31599 218.976 4.87761 219.088 7.01174 219.088C9.14588 219.088 10.1568 218.976 11.5047 218.976C11.7293 218.976 11.7293 219.2 11.7293 219.313L11.8416 220.66C11.8416 220.885 12.0663 221.447 11.617 221.447C11.0554 221.447 11.5047 219.874 9.81981 219.874H8.80891C8.24729 219.874 8.02265 219.986 8.02265 220.66V227.287C8.02265 229.085 9.93214 228.635 9.93214 229.085C9.93214 229.422 9.59517 229.422 9.2582 229.422C8.69658 229.422 8.13497 229.309 7.23639 229.309C6.22548 229.309 5.77619 229.422 5.21458 229.422C4.98993 229.422 4.65296 229.422 4.65296 229.085C4.65296 228.523 6.3378 229.197 6.3378 227.512V220.66H6.22548Z" fill="white"/>
<path d="M21.0521 222.794C21.0521 223.468 21.0521 223.58 21.7261 223.58H22.6247C23.8602 223.58 23.9725 222.232 24.1972 222.232C24.3095 222.232 24.4218 222.232 24.4218 222.569L24.5341 225.153C24.5341 225.377 24.6465 225.827 24.3095 225.827C23.8602 225.827 24.1972 224.254 22.737 224.254H21.6138C20.9398 224.254 21.0521 224.479 21.0521 225.265V227.174C21.0521 228.073 20.9398 228.635 22.063 228.635C25.6574 228.635 25.5451 226.725 25.9943 226.725C26.1067 226.725 26.1067 226.725 26.1067 227.062C26.1067 228.185 25.2081 229.421 24.0849 229.421C21.8384 229.421 20.9398 229.309 20.2659 229.309C19.8166 229.309 19.1426 229.421 18.3564 229.421C18.1317 229.421 18.1317 229.309 18.1317 229.309C18.1317 228.635 19.255 229.421 19.255 227.624V220.772C19.255 219.424 17.5701 219.873 17.5701 219.312C17.5701 219.199 17.6825 219.087 17.9071 219.087C18.4687 219.087 19.5919 219.199 21.8384 219.199C22.8493 219.199 23.8602 219.087 25.2081 219.087C25.4327 219.087 25.5451 219.199 25.5451 219.312L25.6574 220.772C25.6574 220.997 25.7697 221.446 25.4327 221.446C24.7588 221.446 25.882 219.761 23.074 219.761C21.2768 219.761 21.2768 219.761 21.2768 220.772V222.794H21.0521Z" fill="white"/>
<path d="M41.3826 222.12C41.3826 222.232 41.4949 222.569 41.158 222.569C40.9333 222.569 40.821 222.232 40.7087 222.12C39.9224 220.66 38.6869 219.424 37.002 219.424C34.8679 219.424 33.6323 221.446 33.6323 223.468C33.6323 225.489 34.7556 228.41 37.5636 228.41C39.8101 228.41 40.821 226.5 41.158 226.5C41.2703 226.5 41.3826 226.613 41.3826 226.613C41.3826 227.174 39.8101 229.421 36.665 229.421C32.3968 229.421 31.7228 225.714 31.7228 224.479C31.7228 222.007 33.183 218.75 36.8897 218.75C38.6869 218.75 39.8101 219.649 40.2594 219.649C40.484 219.649 40.5963 219.199 40.7087 219.199C40.821 219.199 40.9333 219.199 40.9333 219.312L41.3826 222.12Z" fill="white"/>
<path d="M57.7817 227.287C57.7817 229.196 59.3542 228.635 59.3542 229.196C59.3542 229.421 59.2419 229.421 59.0172 229.421C58.5679 229.421 57.6693 229.309 57.1077 229.309C56.5461 229.309 55.9845 229.421 55.3106 229.421C55.0859 229.421 54.9736 229.309 54.9736 229.309C54.9736 228.747 56.0968 229.196 56.0968 227.736V225.04C56.0968 224.479 56.0968 224.254 55.5352 224.254H51.6039C50.93 224.254 50.93 224.366 50.93 225.04V227.399C50.93 229.196 52.7271 228.635 52.7271 229.196C52.7271 229.309 52.7271 229.421 52.2778 229.421C51.7162 229.421 51.1546 229.309 50.1437 229.309C49.5821 229.309 48.9082 229.421 48.1219 229.421C47.8972 229.421 47.7849 229.421 47.7849 229.196C47.7849 228.635 49.0205 229.084 49.0205 227.287V220.772C49.0205 219.199 47.3356 219.873 47.3356 219.312C47.3356 219.087 47.7849 219.087 48.0096 219.087C48.4589 219.087 48.9082 219.199 49.6944 219.199C50.593 219.199 51.1546 219.087 51.6039 219.087C51.8285 219.087 51.9409 219.199 51.9409 219.312C51.9409 219.761 50.8176 219.312 50.8176 220.66V223.018C50.8176 223.468 50.93 223.58 51.1546 223.58H55.5352C55.9845 223.58 56.0968 223.243 56.0968 222.906V220.884C56.0968 219.312 54.5243 219.761 54.5243 219.424C54.5243 219.199 54.6366 219.199 54.8613 219.199C55.4229 219.199 55.8722 219.312 56.7708 219.312C57.557 219.312 58.1186 219.199 58.6802 219.199C58.9049 219.199 59.0172 219.199 59.0172 219.424C59.0172 219.986 58.0063 219.312 58.0063 220.772V227.287H57.7817Z" fill="white"/>
<path d="M66.8798 221.783C66.8798 218.975 65.1949 219.874 65.1949 219.2C65.1949 219.087 65.3073 218.975 65.4196 218.975C65.6442 218.975 65.9812 219.087 66.2058 219.087C66.5428 219.087 66.9921 218.975 67.7784 218.975C68.2277 218.975 68.1153 219.087 68.34 219.312L74.1808 225.827C74.4054 226.051 74.5177 226.164 74.6301 226.164C74.7424 226.164 74.7424 225.939 74.7424 225.602V220.772C74.7424 219.424 72.9452 219.649 72.9452 219.2C72.9452 219.087 72.9452 218.975 73.1699 218.975C73.3945 218.975 73.8438 219.087 74.8547 219.087C75.7533 219.087 76.3149 218.975 76.4272 218.975C76.6519 218.975 76.6519 219.087 76.6519 219.2C76.6519 219.649 75.4163 219.312 75.4163 220.885V229.084C75.4163 229.421 75.4163 229.533 75.1917 229.533C74.967 229.533 74.967 229.421 74.8547 229.309L67.7784 221.671C67.666 221.559 67.5537 221.446 67.5537 221.446C67.4414 221.446 67.4414 221.559 67.4414 221.671V226.613C67.4414 229.421 69.3509 228.41 69.3509 229.084C69.3509 229.309 69.0139 229.309 68.7893 229.309C68.1153 229.309 67.5537 229.196 67.1044 229.196C66.6551 229.196 66.2059 229.309 65.8689 229.309C65.7566 229.309 65.4196 229.421 65.4196 229.084C65.4196 228.523 66.8798 228.747 66.8798 227.287V221.783Z" fill="white"/>
<path d="M87.9964 218.862C90.8044 218.862 93.0509 220.772 93.0509 223.805C93.0509 225.826 92.1523 229.421 87.4348 229.421C84.5144 229.421 82.4926 227.399 82.4926 224.478C82.6049 221.333 84.5144 218.862 87.9964 218.862ZM87.8841 228.859C90.3552 228.859 91.2537 226.837 91.2537 224.366C91.2537 221.109 89.4566 219.424 87.5471 219.424C85.076 219.424 84.2897 221.446 84.2897 223.58C84.402 225.826 85.3006 228.859 87.8841 228.859Z" fill="white"/>
<path d="M102.149 227.174C102.149 228.073 102.037 228.635 103.16 228.635C106.755 228.635 106.642 226.725 107.092 226.725C107.204 226.725 107.204 226.725 107.204 227.062C107.204 228.185 106.305 229.421 105.182 229.421C102.936 229.421 102.037 229.309 101.363 229.309C100.914 229.309 100.24 229.421 99.4537 229.421C99.229 229.421 99.229 229.309 99.229 229.309C99.229 228.635 100.352 229.421 100.352 227.624V220.66C100.352 219.424 98.6674 219.761 98.6674 219.312C98.6674 219.199 98.7797 219.087 99.1167 219.087C99.6783 219.087 100.577 219.199 101.139 219.199C102.374 219.199 102.599 219.087 102.823 219.087C103.16 219.087 103.16 219.087 103.16 219.312C103.16 219.873 102.149 219.312 102.149 220.435V227.174Z" fill="white"/>
<path d="M118.211 218.862C121.02 218.862 123.266 220.772 123.266 223.805C123.266 225.826 122.367 229.421 117.65 229.421C114.729 229.421 112.708 227.399 112.708 224.478C112.82 221.333 114.729 218.862 118.211 218.862ZM118.099 228.859C120.57 228.859 121.469 226.837 121.469 224.366C121.469 221.109 119.672 219.424 117.762 219.424C115.291 219.424 114.505 221.446 114.505 223.58C114.617 225.826 115.516 228.859 118.099 228.859Z" fill="white"/>
<path d="M138.879 222.344C138.879 222.569 138.767 222.569 138.542 222.569C138.205 222.569 138.205 219.424 134.386 219.424C133.038 219.424 131.129 220.323 131.129 224.029C131.129 226.051 132.139 228.747 134.498 228.747C137.194 228.747 137.194 227.511 137.194 226.613C137.194 224.366 135.397 225.377 135.397 224.816C135.397 224.366 135.846 224.479 136.071 224.479C136.745 224.479 137.419 224.591 138.093 224.591C138.654 224.591 139.103 224.479 139.665 224.479C139.777 224.479 139.777 224.591 139.777 224.703C139.777 225.377 138.767 224.591 138.767 226.388C138.767 226.95 138.767 227.399 138.767 227.624C138.767 227.848 138.767 227.961 138.654 227.961C137.306 228.747 135.621 229.421 134.049 229.421C129.781 229.421 129.107 225.714 129.107 224.479C129.107 222.007 130.567 218.75 134.274 218.75C136.295 218.75 137.531 219.761 137.98 219.761C138.317 219.761 138.317 219.312 138.542 219.312C138.767 219.312 138.767 219.649 138.767 219.873V222.344H138.879Z" fill="white"/>
<path d="M146.741 220.323C146.18 219.312 145.281 219.649 145.281 219.199C145.281 218.975 145.506 218.975 145.843 218.975C146.068 218.975 146.404 219.087 147.191 219.087C147.865 219.087 148.426 219.087 149.325 218.975C149.55 218.975 149.55 219.087 149.55 219.199C149.55 219.536 148.763 219.424 148.763 219.873C148.763 219.986 148.763 220.21 148.988 220.547L150.336 223.243C150.56 223.692 150.673 223.917 150.785 223.917C150.897 223.917 151.01 223.805 151.122 223.468L152.47 220.996C152.695 220.547 152.695 220.322 152.695 220.21C152.695 219.199 151.234 219.536 151.234 219.087C151.234 218.975 151.347 218.862 151.459 218.862C151.684 218.862 151.908 218.975 152.695 218.975C153.818 218.975 153.93 218.862 154.379 218.862C154.604 218.862 154.604 218.975 154.604 218.975C154.604 219.424 153.93 219.087 153.032 220.659L151.122 224.254C151.01 224.591 150.897 224.703 150.897 225.152V227.287C150.897 229.084 152.695 228.073 152.695 228.859C152.695 228.971 152.47 229.084 152.245 229.084C152.133 229.084 151.908 228.971 150.111 228.971C148.763 228.971 148.314 229.084 147.977 229.084C147.752 229.084 147.528 229.084 147.528 228.971C147.528 228.297 149.1 229.084 149.1 227.287V225.377C149.1 224.928 148.988 224.815 148.876 224.478L146.741 220.323Z" fill="white"/>
</g>
<defs>
<clipPath id="clip0">
<rect y="0.901855" width="156" height="285" fill="white"/>
</clipPath>
</defs>
</svg>