<svg width="95" height="104" viewBox="0 0 95 104" fill="none" xmlns="http://www.w3.org/2000/svg">
<path d="M46.9356 100.048C-1.53308 77.5985 4.2233 27.518 4.33843 4.14711L90.1085 4.26224C89.9933 27.6331 95.4043 77.7136 46.9356 100.048ZM4.2233 0.3479L0.539219 4.26224C0.539219 7.0253 0.424092 10.5943 0.424092 12.3212C0.0787091 39.8367 1.92075 82.549 46.7054 103.272C70.4217 92.3348 88.2664 73.4539 92.9867 44.2115C95.7497 27.2878 94.1379 11.1699 94.1379 0.3479L4.2233 0.3479Z" fill="#004990"/>
<path d="M28.6306 61.826C25.1768 65.5101 21.8381 69.0791 20.6868 70.3455C20.4565 70.5757 20.3414 70.9211 20.5717 71.0363C20.8019 71.2665 21.1473 71.6119 21.2624 71.6119C21.4927 71.6119 21.6078 71.727 21.9532 71.3816C22.0683 71.2665 25.8675 67.5824 30.3575 63.3227C30.3575 63.3227 29.897 63.0925 29.5516 62.7471C29.0911 62.4017 28.6306 61.826 28.6306 61.826Z" fill="#004990"/>
<path d="M30.9328 60.7899C31.8538 61.5958 33.2354 62.4017 33.2354 62.4017L32.4295 63.2076C32.0841 63.553 31.0479 62.9773 30.0118 62.0563C28.9756 61.1353 28.2849 60.0991 28.6302 59.7538L29.5513 58.9479C29.4361 58.9479 30.0118 59.984 30.9328 60.7899Z" fill="#004990"/>
<path d="M70.0765 70.2304C70.7673 69.5396 70.7673 68.8489 70.7673 68.8489L71.5732 69.1943C71.8034 69.4245 71.5732 70.3455 70.8824 71.0363C70.1916 71.7271 69.1555 71.9573 68.9252 71.7271L68.4647 70.9212C68.5798 71.0363 69.3857 71.0363 70.0765 70.2304Z" fill="#004990"/>
<path d="M68.9253 68.964C69.3858 68.5035 69.501 68.043 69.501 68.043L69.9615 68.3884C70.0766 68.6186 69.9615 69.0791 69.501 69.6548C68.9253 70.2304 68.2346 70.3455 68.1194 70.1153L67.774 69.5396C67.774 69.6548 68.4648 69.4245 68.9253 68.964Z" fill="#004990"/>
<path d="M71.3426 29.8206L70.4216 30.6265C69.1552 31.087 66.3921 28.8996 64.0896 26.9424C62.5929 25.676 59.5996 22.3373 60.4055 20.9558L60.7509 20.6104C60.5206 20.4953 60.2904 20.265 60.0601 20.265C59.8299 20.1499 59.4845 20.0348 59.1391 20.0348C58.7937 20.0348 58.4483 20.265 58.4483 20.4953C58.3332 21.0709 58.6786 21.8768 59.2542 22.7979C59.7147 23.7189 61.5568 26.4819 65.356 29.4753C67.0829 30.8568 69.0401 31.6627 70.4216 32.2383C70.6518 32.3534 71.5729 32.4686 71.9183 32.1232C72.2636 31.7778 71.9183 31.087 71.5729 30.3963C71.5729 30.2811 71.4577 30.0509 71.3426 29.8206Z" fill="#004990"/>
<path d="M32.43 15.8901C32.43 16.1203 32.43 16.4657 32.43 16.8111C32.43 17.7321 33.2359 25.2154 37.6108 30.6264C41.41 35.3466 52.6925 48.8166 54.5345 51.004C56.2614 52.9612 67.3137 65.9706 68.6952 67.6975C68.6952 67.8126 68.8103 67.8126 68.8103 67.9277C68.8103 67.9277 68.6952 68.2731 68.3498 68.5034C68.0044 68.7336 67.659 68.8488 67.659 68.8488L67.3137 68.5034C66.8532 67.9277 47.6269 48.7014 45.7848 46.9745C43.9428 45.1325 34.0418 35.5769 30.0123 33.0441C26.4434 30.7415 24.8316 29.4751 21.0324 29.2449C21.0324 29.2449 18.2693 29.1297 18.0391 29.0146C18.0391 29.0146 18.0391 28.8995 18.1542 28.7844C19.8811 28.0936 23.5652 25.9062 26.5585 23.1431C30.7031 19.2288 31.9695 16.4657 32.1998 16.0052C32.1998 15.7749 32.43 15.7749 32.43 15.8901ZM35.0779 32.1231C31.0485 28.2087 29.5518 27.2877 27.8249 26.4818C26.9039 26.0213 25.9829 25.791 25.6375 25.9062C24.8316 26.2516 23.6803 26.7121 22.9895 27.4028C22.4139 27.8633 22.529 28.0936 22.7593 28.2087C22.9895 28.3239 25.0618 28.7844 26.9039 29.8205C30.1275 31.5474 36.2292 35.8071 49.4689 49.3922C56.1463 56.2998 66.738 67.1218 66.738 67.1218L66.9683 66.8916C66.9683 66.8916 51.5412 49.6225 39.5679 36.8433C37.9561 35.0013 36.4595 33.5046 35.0779 32.1231Z" fill="#004990"/>
<path d="M23.2197 23.949C21.4928 25.4457 19.3054 26.8272 17.3482 27.518C16.0818 27.9785 14.3549 27.4028 15.6213 25.1003C15.9667 24.4095 16.5423 23.4885 17.2331 22.5675C19.5356 19.459 23.6802 15.775 27.7097 13.5875C28.9761 12.8968 30.0123 12.5514 30.5879 12.5514C31.624 12.6665 31.624 13.4724 31.5089 14.2783C31.0484 15.8901 28.1702 19.8044 23.2197 23.949ZM24.4861 21.7616C24.9466 21.4162 26.5584 19.8044 27.8248 18.1926C29.2064 16.4657 30.0123 15.0842 30.0123 15.0842C30.0123 15.0842 30.2425 14.6237 30.2425 14.2783C30.2425 14.048 29.8971 13.9329 29.8971 13.8178C29.782 13.7027 26.3282 15.1993 24.7164 16.696C24.4861 16.8111 24.2559 17.617 24.0256 18.0775C23.9105 18.538 25.0618 19.6893 24.2559 21.6465C24.1407 21.7616 24.371 21.7616 24.4861 21.7616Z" fill="#004990"/>
<path d="M45.4393 48.0109C44.6334 48.8168 32.1996 60.79 32.1996 60.79C32.4298 61.0203 32.8904 61.3657 32.8904 61.3657C32.8904 61.3657 44.288 50.3134 45.209 49.5075C45.4393 49.2773 45.8998 48.8168 46.13 48.7016L45.4393 48.0109Z" fill="#004990"/>
<path d="M69.0404 33.2746C69.2706 33.2746 69.3857 33.2746 69.616 33.2746C69.8463 33.2746 70.0765 33.2746 70.0765 33.1595C70.1916 33.0443 70.3068 32.9292 70.0765 32.9292C69.5009 32.9292 68.4647 32.5838 67.1983 32.0082C66.5076 32.2384 65.2412 32.5838 63.8596 33.1595C62.0176 33.9653 58.1032 36.2679 50.0443 43.7512L50.6199 44.442C53.383 41.9091 57.1822 38.5704 59.1394 37.304C62.7083 35.0015 65.3563 33.8502 67.0832 33.5048C67.6588 33.3897 68.3496 33.2746 69.0404 33.2746Z" fill="#004990"/>
<path d="M61.0974 27.4029C58.91 25.1004 58.2192 23.4886 57.8738 22.2222V22.1071H57.7587V22.2222C57.5284 24.6399 57.7587 25.5609 56.7226 27.9786C55.9167 30.0509 54.42 32.5837 52.3477 35.0013C51.1964 36.3829 49.2393 38.5703 47.3972 40.7577L48.6636 42.2544C48.7788 42.1393 49.2393 41.6787 49.6998 41.2182C55.8015 34.656 61.2125 30.5114 63.1697 29.1298C62.3638 28.6693 61.673 27.9786 61.0974 27.4029Z" fill="#004990"/>
<path d="M42.9067 45.7083C40.2587 48.5864 37.7259 51.5798 36.92 52.3857C36.2293 53.0764 30.588 59.1782 30.588 59.1782C30.588 59.1782 30.7031 59.4084 30.9334 59.6387C31.1636 59.8689 31.3939 60.0992 31.3939 60.0992C31.3939 60.0992 43.3672 47.8957 44.1731 46.8595L42.9067 45.7083Z" fill="#004990"/>
<path d="M63.2841 19.344C63.2841 19.2288 63.2841 19.1137 63.2841 19.1137C62.7085 18.9986 62.1328 18.9986 61.9026 19.2288C61.0967 20.0347 62.8236 22.9129 65.8169 25.676C68.6951 28.3239 71.6884 29.9357 72.4943 29.0147C72.8397 28.6693 72.7246 27.9785 72.2641 27.1726C68.1195 27.6331 63.2841 21.9919 63.2841 19.344Z" fill="#004990"/>
<path d="M76.4087 20.38C75.9482 20.8405 75.2575 21.9918 74.9121 22.3372C75.3726 21.9918 75.6028 20.9556 75.1423 18.4228C74.797 16.5808 74.5667 16.0052 74.3364 15.4295C74.2213 15.0841 73.9911 15.1993 73.7608 15.4295C73.5305 15.6598 72.9549 16.5808 72.9549 16.6959C72.9549 16.9262 72.9549 16.6959 72.149 14.1631C71.5734 12.5513 71.3431 11.4 71.4583 10.8244C71.4583 10.479 71.4583 10.2488 71.4583 10.0185C71.4583 9.78826 71.3431 9.78826 70.8826 10.0185C70.6524 10.1336 68.3498 11.7454 67.4288 14.048C66.8532 15.4295 66.8531 16.4657 66.738 15.89C66.6229 14.5085 66.6229 14.6236 66.5078 14.6236C65.817 14.8539 63.1691 16.0052 63.1691 19.5741C63.1691 22.5674 68.6952 28.7843 73.3003 27.4028C73.3003 27.4028 76.7541 26.712 76.7541 23.6036C76.7541 20.2649 76.4087 20.38 76.4087 20.38ZM75.2575 24.2943C75.1423 24.6397 74.4516 25.4456 73.5305 25.791C72.4944 26.2515 70.9977 26.3666 70.307 26.1364C66.9683 25.1002 64.896 21.6464 64.896 21.6464C62.248 17.3867 65.817 15.5446 66.0473 15.5446C66.0473 15.5446 65.7019 16.9262 65.9321 17.8472C66.1624 18.6531 66.6229 19.3438 66.8532 19.8044C67.1985 20.7254 66.738 21.4161 66.5078 21.6464C66.3926 21.7615 66.738 21.7615 66.738 21.6464C66.738 21.6464 66.8531 21.5313 66.9683 21.5313C67.4288 21.1859 67.8893 20.6103 67.7742 20.0346C67.4288 18.7682 66.5078 17.8472 67.659 15.1993C68.3498 13.5875 69.9616 11.8606 70.0767 11.8606C70.307 11.7454 70.5372 11.5152 70.5372 11.6303C70.5372 11.8606 70.8826 13.0118 70.9977 13.8177C71.1129 14.6236 72.0339 16.2354 71.9188 18.4228C71.6885 20.6103 68.1196 23.1431 67.5439 23.2582C67.4288 23.2582 67.0834 23.4884 67.0834 23.4884C66.9683 23.6036 67.1985 23.6036 67.1985 23.6036C67.4288 23.6036 68.9254 23.2582 70.1918 22.4523C71.228 21.7615 72.2641 20.6103 72.6095 19.9195C73.3003 18.7682 73.5305 17.0413 73.6457 16.9262C73.7608 16.6959 73.8759 16.6959 73.8759 16.811C73.8759 16.9262 74.2213 17.9623 74.2213 18.4228C74.2213 18.6531 74.4516 19.459 74.4516 20.38C74.4516 22.1069 73.9911 22.7977 72.9549 23.6036C72.3793 24.0641 71.8036 24.1792 71.1129 24.2943H70.8826C70.7675 24.2943 70.6524 24.2943 70.8826 24.4095C70.8826 24.4095 70.9977 24.4095 71.1129 24.5246C71.6885 24.7548 72.8398 24.7548 73.6457 24.2943C73.9911 24.0641 74.4516 23.7187 75.0272 23.1431C75.2575 22.9128 75.6028 22.4523 75.6028 22.6825C75.6028 22.9128 75.6028 23.6036 75.2575 24.2943Z" fill="#004990"/>
</svg>
